<svg xmlns="http://www.w3.org/2000/svg" viewBox="0 0 920 420" font-family="system-ui, -apple-system, 'Segoe UI', sans-serif">
  <defs>
    <marker id="arrow" viewBox="0 0 10 10" refX="9" refY="5" markerWidth="5" markerHeight="5" orient="auto">
      <path d="M0,0 L10,5 L0,10 z" fill="#71717a"/>
    </marker>
    <marker id="arrow-light" viewBox="0 0 10 10" refX="9" refY="5" markerWidth="5" markerHeight="5" orient="auto">
      <path d="M0,0 L10,5 L0,10 z" fill="#a1a1aa"/>
    </marker>
    <marker id="arrow-violet-end" viewBox="0 0 10 10" refX="9" refY="5" markerWidth="5" markerHeight="5" orient="auto">
      <path d="M0,0 L10,5 L0,10 z" fill="#7c3aed"/>
    </marker>
    <marker id="arrow-blue" viewBox="0 0 10 10" refX="9" refY="5" markerWidth="5" markerHeight="5" orient="auto">
      <path d="M0,0 L10,5 L0,10 z" fill="#2563eb"/>
    </marker>
    <marker id="arrow-orange" viewBox="0 0 10 10" refX="9" refY="5" markerWidth="5" markerHeight="5" orient="auto">
      <path d="M0,0 L10,5 L0,10 z" fill="#b45309"/>
    </marker>
  </defs>

  <rect width="920" height="420" fill="#ffffff"/>

  <text x="30" y="34" font-size="11" font-weight="600" fill="#18181b">Project isolation</text>

  <rect x="25" y="50" width="410" height="265" rx="8" fill="#f5f3ff" stroke="#ddd6fe" stroke-width="1"/>
  <rect x="25" y="50" width="410" height="28" rx="8" fill="#ede9fe"/>
  <text x="40" y="68" font-size="10" font-weight="600" fill="#5b21b6">Project A Scope</text>
  <text x="130" y="68" font-size="8" fill="#7c3aed" font-family="ui-monospace, SFMono-Regular, monospace">/home/user/project-a</text>

  <rect x="40" y="88" width="165" height="42" rx="6" fill="#eef2ff" stroke="#c7d2fe" stroke-width="1"/>
  <text x="50" y="103" font-size="9" font-weight="600" fill="#3730a3">Dashboard</text>
  <text x="50" y="118" font-size="7" fill="#52525b">Express · SQLite · SSE</text>

  <rect x="40" y="138" width="165" height="34" rx="4" fill="#fff" stroke="#ddd6fe"/>
  <text x="50" y="149" font-size="7.5" font-weight="600" fill="#52525b">Project Environment</text>
  <text x="50" y="161" font-size="7.5" fill="#b45309" font-weight="600">.venv <tspan fill="#52525b">· python + pytest</tspan></text>

  <rect x="255" y="88" width="150" height="84" rx="4" fill="#fff" stroke="#7c3aed" stroke-dasharray="3,2"/>
  <text x="265" y="103" font-size="8" font-weight="600" fill="#7c3aed">.jira-dashboard/</text>
  <text x="265" y="120" font-size="7" fill="#52525b">store.db (project store)</text>
  <text x="265" y="138" font-size="7" fill="#2563eb" font-weight="600">.env</text>

  <path d="M 205 109 L 251 109" fill="none" stroke="#2563eb" stroke-width="1.2" marker-end="url(#arrow-blue)"/>

  <text x="40" y="190" font-size="7" font-weight="600" fill="#5b21b6" letter-spacing="0.5">WORKTREES &amp; CODER SESSIONS</text>

  <rect x="40" y="200" width="165" height="32" rx="4" fill="#fff" stroke="#ddd6fe"/>
  <text x="50" y="213" font-size="8" fill="#18181b" font-family="ui-monospace, SFMono-Regular, monospace">ticket-a1b2c3</text>
  <text x="50" y="225" font-size="7" fill="#71717a" font-family="ui-monospace, SFMono-Regular, monospace">.worktrees/a1b2c3</text>

  <rect x="255" y="200" width="150" height="32" rx="4" fill="#f8fafc" stroke="#2563eb" stroke-width="1"/>
  <text x="263" y="211" font-size="7.5" font-weight="600" fill="#2563eb">LLM session</text>
  <rect x="263" y="215" width="32" height="13" rx="2" fill="#fff" stroke="#94a3b8"/>
  <text x="267" y="224" font-size="6" fill="#475569">Clarify</text>
  <rect x="298" y="215" width="32" height="13" rx="2" fill="#fff" stroke="#94a3b8"/>
  <text x="302" y="224" font-size="6" fill="#475569">Impl</text>
  <rect x="333" y="215" width="32" height="13" rx="2" fill="#fff" stroke="#94a3b8"/>
  <text x="337" y="224" font-size="6" fill="#475569">Clarify 2</text>

  <rect x="40" y="238" width="165" height="32" rx="4" fill="#fff" stroke="#ddd6fe"/>
  <text x="50" y="251" font-size="8" fill="#18181b" font-family="ui-monospace, SFMono-Regular, monospace">ticket-d4e5f6</text>
  <text x="50" y="263" font-size="7" fill="#71717a" font-family="ui-monospace, SFMono-Regular, monospace">.worktrees/d4e5f6</text>

  <rect x="255" y="238" width="150" height="32" rx="4" fill="#f8fafc" stroke="#2563eb" stroke-width="1"/>
  <text x="263" y="249" font-size="7.5" font-weight="600" fill="#2563eb">LLM session</text>
  <rect x="263" y="253" width="32" height="13" rx="2" fill="#fff" stroke="#94a3b8"/>
  <text x="267" y="262" font-size="6" fill="#475569">Clarify</text>
  <rect x="298" y="253" width="32" height="13" rx="2" fill="#fff" stroke="#94a3b8"/>
  <text x="302" y="262" font-size="6" fill="#475569">Impl</text>

  <path d="M 205 216 L 251 216" fill="none" stroke="#a1a1aa" stroke-width="1.2" marker-end="url(#arrow-light)"/>
  <path d="M 205 254 L 251 254" fill="none" stroke="#a1a1aa" stroke-width="1.2" marker-end="url(#arrow-light)"/>

  <path d="M 255 208 L 235 208 L 235 155 L 209 155" fill="none" stroke="#b45309" stroke-width="1.2" stroke-dasharray="2,2" marker-end="url(#arrow-orange)"/>
  <path d="M 255 246 L 220 246 L 220 163 L 209 163" fill="none" stroke="#b45309" stroke-width="1.2" stroke-dasharray="2,2" marker-end="url(#arrow-orange)"/>


  <rect x="465" y="50" width="410" height="265" rx="8" fill="#ecfdf5" stroke="#a7f3d0" stroke-width="1"/>
  <rect x="465" y="50" width="410" height="28" rx="8" fill="#d1fae5"/>
  <text x="480" y="68" font-size="10" font-weight="600" fill="#065f46">Project B Scope</text>
  <text x="570" y="68" font-size="8" fill="#047857" font-family="ui-monospace, SFMono-Regular, monospace">/home/user/project-b</text>

  <rect x="480" y="88" width="165" height="42" rx="6" fill="#eef2ff" stroke="#a7f3d0" stroke-width="1"/>
  <text x="490" y="103" font-size="9" font-weight="600" fill="#065f46">Dashboard</text>
  <text x="490" y="118" font-size="7" fill="#52525b">Express · SQLite · SSE</text>

  <rect x="480" y="138" width="165" height="34" rx="4" fill="#fff" stroke="#a7f3d0"/>
  <text x="490" y="149" font-size="7.5" font-weight="600" fill="#52525b">Project Environment</text>
  <text x="490" y="161" font-size="7.5" fill="#b45309" font-weight="600">node_modules <tspan fill="#52525b">· TS + vite</tspan></text>

  <rect x="695" y="88" width="150" height="84" rx="4" fill="#fff" stroke="#047857" stroke-dasharray="3,2"/>
  <text x="705" y="103" font-size="8" font-weight="600" fill="#047857">.jira-dashboard/</text>
  <text x="705" y="120" font-size="7" fill="#52525b">store.db (project store)</text>
  <text x="705" y="138" font-size="7" fill="#2563eb" font-weight="600">.env</text>

  <path d="M 645 109 L 691 109" fill="none" stroke="#2563eb" stroke-width="1.2" marker-end="url(#arrow-blue)"/>

  <text x="480" y="190" font-size="7" font-weight="600" fill="#065f46" letter-spacing="0.5">WORKTREES &amp; CODER SESSIONS</text>

  <rect x="480" y="200" width="165" height="32" rx="4" fill="#fff" stroke="#a7f3d0"/>
  <text x="490" y="213" font-size="8" fill="#18181b" font-family="ui-monospace, SFMono-Regular, monospace">ticket-j1k2l3</text>
  <text x="490" y="225" font-size="7" fill="#71717a" font-family="ui-monospace, SFMono-Regular, monospace">.worktrees/j1k2l3</text>

  <rect x="695" y="200" width="150" height="32" rx="4" fill="#f8fafc" stroke="#2563eb" stroke-width="1"/>
  <text x="703" y="211" font-size="7.5" font-weight="600" fill="#2563eb">LLM session</text>
  <rect x="703" y="215" width="32" height="13" rx="2" fill="#fff" stroke="#94a3b8"/>
  <text x="707" y="224" font-size="6" fill="#475569">Clarify</text>
  <rect x="738" y="215" width="32" height="13" rx="2" fill="#fff" stroke="#94a3b8"/>
  <text x="742" y="224" font-size="6" fill="#475569">Impl</text>
  <rect x="773" y="215" width="32" height="13" rx="2" fill="#fff" stroke="#94a3b8"/>
  <text x="777" y="224" font-size="6" fill="#475569">Impl 2</text>

  <rect x="480" y="238" width="165" height="32" rx="4" fill="#fff" stroke="#a7f3d0"/>
  <text x="490" y="251" font-size="8" fill="#18181b" font-family="ui-monospace, SFMono-Regular, monospace">ticket-m4n5o6</text>
  <text x="490" y="263" font-size="7" fill="#71717a" font-family="ui-monospace, SFMono-Regular, monospace">.worktrees/m4n5o6</text>

  <rect x="695" y="238" width="150" height="32" rx="4" fill="#f8fafc" stroke="#2563eb" stroke-width="1"/>
  <text x="703" y="249" font-size="7.5" font-weight="600" fill="#2563eb">LLM session</text>
  <rect x="703" y="253" width="32" height="13" rx="2" fill="#fff" stroke="#94a3b8"/>
  <text x="707" y="262" font-size="6" fill="#475569">Clarify</text>
  <rect x="738" y="253" width="32" height="13" rx="2" fill="#fff" stroke="#94a3b8"/>
  <text x="742" y="262" font-size="6" fill="#475569">Impl</text>

  <path d="M 645 216 L 691 216" fill="none" stroke="#a1a1aa" stroke-width="1.2" marker-end="url(#arrow-light)"/>
  <path d="M 645 254 L 691 254" fill="none" stroke="#a1a1aa" stroke-width="1.2" marker-end="url(#arrow-light)"/>

  <path d="M 695 208 L 675 208 L 675 155 L 649 155" fill="none" stroke="#b45309" stroke-width="1.2" stroke-dasharray="2,2" marker-end="url(#arrow-orange)"/>
  <path d="M 695 246 L 660 246 L 660 163 L 649 163" fill="none" stroke="#b45309" stroke-width="1.2" stroke-dasharray="2,2" marker-end="url(#arrow-orange)"/>

  <rect x="280" y="4" width="100" height="18" rx="4" fill="#fff7ed" stroke="#b45309" stroke-width="1.5"/>
  <text x="330" y="16" font-size="8" font-weight="700" fill="#b45309" text-anchor="middle" letter-spacing="0.3">Install Script</text>
  <path d="M 330 22 L 330 84" fill="none" stroke="#b45309" stroke-width="1.5" marker-end="url(#arrow-orange)"/>
  <rect x="303" y="46" width="54" height="14" rx="7" fill="#ffffff" stroke="#b45309" stroke-width="1"/>
  <text x="330" y="56" font-size="7.5" fill="#b45309" text-anchor="middle" font-style="italic">initialize</text>

  <rect x="720" y="4" width="100" height="18" rx="4" fill="#fff7ed" stroke="#b45309" stroke-width="1.5"/>
  <text x="770" y="16" font-size="8" font-weight="700" fill="#b45309" text-anchor="middle" letter-spacing="0.3">Install Script</text>
  <path d="M 770 22 L 770 84" fill="none" stroke="#b45309" stroke-width="1.5" marker-end="url(#arrow-orange)"/>
  <rect x="743" y="46" width="54" height="14" rx="7" fill="#ffffff" stroke="#b45309" stroke-width="1"/>
  <text x="770" y="56" font-size="7.5" fill="#b45309" text-anchor="middle" font-style="italic">initialize</text>

  <text x="30" y="340" font-size="11" font-weight="600" fill="#18181b">Ticket lifecycle</text>

  <rect x="30" y="355" width="185" height="50" rx="6" fill="#eff6ff" stroke="#bfdbfe" stroke-width="1.2"/>
  <circle cx="45" cy="372" r="3.5" fill="#3b82f6"/>
  <text x="56" y="376" font-size="10" font-weight="600" fill="#1d4ed8">Clarification</text>
  <text x="45" y="396" font-size="7.5" fill="#1d4ed8" font-style="italic">no worktree yet</text>

  <rect x="240" y="355" width="185" height="50" rx="6" fill="#fffbeb" stroke="#fde68a" stroke-width="1.2"/>
  <circle cx="255" cy="372" r="3.5" fill="#f59e0b"/>
  <text x="266" y="376" font-size="10" font-weight="600" fill="#b45309">Implementation</text>
  <text x="255" y="396" font-size="7.5" fill="#b45309" font-style="italic">live resource metrics via SSE</text>

  <rect x="450" y="355" width="185" height="50" rx="6" fill="#f5f3ff" stroke="#ddd6fe" stroke-width="1.2"/>
  <circle cx="465" cy="372" r="3.5" fill="#7c3aed"/>
  <text x="476" y="376" font-size="10" font-weight="600" fill="#6d28d9">Review</text>
  <text x="465" y="396" font-size="7.5" fill="#6d28d9" font-style="italic">feedback loops back</text>

  <rect x="660" y="355" width="185" height="50" rx="6" fill="#f4f4f5" stroke="#d4d4d8" stroke-width="1.2"/>
  <circle cx="675" cy="372" r="3.5" fill="#52525b"/>
  <text x="686" y="376" font-size="10" font-weight="600" fill="#3f3f46">Done</text>
  <text x="675" y="396" font-size="7.5" fill="#3f3f46" font-style="italic">commit visible in log</text>

  <line x1="215" y1="380" x2="236" y2="380" stroke="#71717a" stroke-width="1.2" marker-end="url(#arrow)"/>
  <line x1="425" y1="380" x2="446" y2="380" stroke="#71717a" stroke-width="1.2" marker-end="url(#arrow)"/>
  <line x1="635" y1="380" x2="656" y2="380" stroke="#71717a" stroke-width="1.2" marker-end="url(#arrow)"/>

  <path d="M 542 355 L 542 334 Q 542 328 534 328 L 117 328 Q 109 328 109 334 L 109 351" fill="none" stroke="#7c3aed" stroke-width="1.2" stroke-dasharray="4,3" marker-end="url(#arrow-violet-end)"/>
  <rect x="310" y="321" width="54" height="14" rx="7" fill="#ffffff" stroke="#ddd6fe" stroke-width="1"/>
  <text x="337" y="331" font-size="7.5" fill="#7c3aed" text-anchor="middle" font-style="italic">feedback</text>
</svg>
